<svg xmlns="http://www.w3.org/2000/svg" xmlns:xlink="http://www.w3.org/1999/xlink" viewBox="0,0,256,256" width="250px" height="250px" fill-rule="nonzero"><g fill="#ffffff" fill-rule="nonzero" stroke="none" stroke-width="1" stroke-linecap="butt" stroke-linejoin="miter" stroke-miterlimit="10" stroke-dasharray="" stroke-dashoffset="0" font-family="none" font-weight="none" font-size="none" text-anchor="none" style="mix-blend-mode: normal"><g transform="scale(5.12,5.12)"><path d="M3.99609,6c-0.55074,0.00221 -0.99604,0.44926 -0.99609,1v18c0.00035,0.23167 0.08112,0.45603 0.22852,0.63477l14,17c0.18969,0.23088 0.47267,0.36486 0.77148,0.36523h14c0.38455,0.00016 0.73514,-0.22018 0.90176,-0.56676c0.16662,-0.34658 0.11977,-0.758 -0.12051,-1.05824l-28,-35c-0.19078,-0.23827 -0.47992,-0.37637 -0.78516,-0.375zM45.9707,7c-0.28952,0.00886 -0.56097,0.14281 -0.74414,0.36719l-18,22c-0.24426,0.29901 -0.29459,0.71191 -0.12931,1.06084c0.16528,0.34893 0.51665,0.57155 0.90275,0.57197h14c0.30386,0.00018 0.59132,-0.13781 0.78125,-0.375l4,-5c0.14177,-0.17745 0.21892,-0.39787 0.21875,-0.625v-17c0.00009,-0.27036 -0.10929,-0.52924 -0.3032,-0.71764c-0.19392,-0.1884 -0.45584,-0.29025 -0.72609,-0.28236zM5,9.85156l24.91797,31.14844h-11.44531l-13.47266,-16.35742zM45,10.80078v13.84766l-3.48047,4.35156h-11.41016z"></path></g></g></svg>